<svg id="svg" xmlns="http://www.w3.org/2000/svg" width="400" height="400" viewBox="0, 0, 400,400"><g id="svgg"><path id="path0" d="M192.578 27.083 C 185.991 27.888,180.223 29.071,175.712 30.540 C 169.678 32.507,84.224 70.271,78.125 73.667 C 59.630 83.964,46.706 100.207,40.080 121.484 L 37.891 128.516 37.891 200.000 L 37.891 271.484 40.080 278.516 C 46.573 299.366,59.396 315.681,77.344 325.928 C 82.460 328.849,169.940 367.553,175.700 369.444 C 190.455 374.287,209.480 374.284,224.360 369.436 C 230.342 367.487,315.817 329.706,321.875 326.333 C 340.307 316.071,353.316 299.721,359.920 278.516 L 362.109 271.484 362.109 200.000 L 362.109 128.516 359.920 121.484 C 353.404 100.561,340.745 84.451,322.656 74.060 C 315.769 70.104,227.629 31.406,221.875 29.812 C 212.396 27.186,200.672 26.094,192.578 27.083 M213.280 54.296 C 221.342 56.386,309.905 96.048,314.396 99.581 C 316.323 101.097,323.306 97.733,257.676 126.903 L 200.118 152.484 142.442 126.889 C 76.416 97.588,83.693 101.084,85.604 99.582 C 89.821 96.266,179.272 56.212,186.645 54.337 C 195.505 52.085,204.690 52.071,213.280 54.296 M127.930 148.829 L 187.500 175.259 187.500 260.639 L 187.500 346.019 184.180 344.995 C 180.885 343.979,99.015 307.759,92.217 304.310 C 78.940 297.573,68.791 284.776,64.327 269.141 C 62.696 263.429,61.751 155.771,63.195 140.266 C 63.946 132.215,66.684 121.539,67.846 122.136 C 68.128 122.281,95.166 134.293,127.930 148.829 M335.782 131.537 C 337.854 139.016,337.800 261.144,335.721 268.750 C 331.450 284.377,321.505 297.234,308.538 303.896 C 301.546 307.487,219.469 343.870,215.820 344.995 L 212.500 346.019 212.500 260.678 L 212.500 175.337 272.461 148.675 L 332.422 122.013 333.438 124.380 C 333.997 125.681,335.052 128.902,335.782 131.537 " stroke="none" fill="#000000" fill-rule="evenodd"></path></g></svg>